<svg width="384" height="208" viewBox="0 0 384 208" fill="none" xmlns="http://www.w3.org/2000/svg">
<path fill-rule="evenodd" clip-rule="evenodd" d="M-20 11.0646L1.41667 6.78339C22.8333 2.50219 65.6667 -6.06022 108.5 6.78339C151.333 19.627 216.167 43.5 259 43.5C301.833 43.5 343.667 19.627 386.5 23.9082C429.333 28.1894 451.167 68.8609 472.583 88.1263L494 109.532V208H472.583C451.167 208 408.333 208 365.5 208C322.667 208 279.833 208 237 208C194.167 208 151.333 208 108.5 208C65.6667 208 22.8333 208 1.41667 208H-20V11.0646Z" fill="white"/>
</svg>
