<svg width="24" height="24" viewBox="0 0 24 24" fill="none" xmlns="http://www.w3.org/2000/svg">
<path d="M8.12016 9.29007L12.0002 13.1701L15.8802 9.29007C15.9727 9.19749 16.0827 9.12405 16.2036 9.07394C16.3246 9.02384 16.4542 8.99805 16.5852 8.99805C16.7161 8.99805 16.8457 9.02384 16.9667 9.07394C17.0877 9.12405 17.1976 9.19749 17.2902 9.29007C17.3827 9.38265 17.4562 9.49256 17.5063 9.61352C17.5564 9.73449 17.5822 9.86414 17.5822 9.99507C17.5822 10.126 17.5564 10.2556 17.5063 10.3766C17.4562 10.4976 17.3827 10.6075 17.2902 10.7001L12.7002 15.2901C12.6076 15.3828 12.4978 15.4563 12.3768 15.5065C12.2558 15.5567 12.1261 15.5825 11.9952 15.5825C11.8642 15.5825 11.7345 15.5567 11.6135 15.5065C11.4926 15.4563 11.3827 15.3828 11.2902 15.2901L6.70016 10.7001C6.60746 10.6076 6.53391 10.4977 6.48373 10.3767C6.43354 10.2557 6.40771 10.126 6.40771 9.99507C6.40771 9.8641 6.43354 9.73442 6.48373 9.61344C6.53391 9.49247 6.60746 9.38258 6.70016 9.29007C7.09016 8.91007 7.73016 8.90007 8.12016 9.29007Z" fill="#1E1E1E"/>
</svg>
