<svg width="32" height="32" viewBox="0 0 32 32" fill="none" xmlns="http://www.w3.org/2000/svg">
<path d="M0.635938 3.68146C0.429688 3.88771 0.310938 4.71271 0.360938 5.54396C0.404688 6.20021 0.504688 6.63146 0.754688 7.21271L0.917188 7.60021L0.754688 8.08771C0.454688 9.00646 0.223438 10.2752 0.0796875 11.8252C-0.0265625 13.0002 -0.0265625 18.144 0.0796875 19.2627C0.242188 20.8877 0.467188 22.1252 0.785938 23.094L0.917188 23.4877L0.760938 23.844C0.398438 24.6502 0.260938 25.7315 0.398438 26.6627C0.492188 27.3127 0.504688 27.344 0.723438 27.4565C0.873438 27.5315 0.992188 27.5377 1.39219 27.4877C2.37969 27.3565 3.41719 26.9565 4.12344 26.4252C4.29219 26.3002 4.46719 26.169 4.51094 26.1502C4.55469 26.1252 5.04219 26.2127 5.60469 26.3502C8.47344 27.0565 12.4672 27.5002 15.9672 27.5002C19.4672 27.5002 23.4609 27.0565 26.3297 26.3502C26.8922 26.2127 27.3797 26.1252 27.4234 26.1502C27.4672 26.169 27.6422 26.3002 27.8109 26.4252C28.5172 26.9565 29.5547 27.3565 30.5422 27.4877C30.9422 27.5377 31.0609 27.5315 31.2109 27.4565C31.4297 27.344 31.4422 27.3127 31.5359 26.6627C31.6734 25.7315 31.5359 24.6502 31.1734 23.844L31.0172 23.4877L31.1484 23.094C31.4672 22.1252 31.6922 20.8877 31.8547 19.2627C31.9609 18.144 31.9609 13.0002 31.8547 11.8252C31.7109 10.2752 31.4797 9.00646 31.1797 8.08771L31.0172 7.60021L31.1797 7.21271C31.4297 6.63146 31.5297 6.20021 31.5734 5.54396C31.6234 4.71271 31.5047 3.88771 31.2984 3.68146C31.1547 3.53771 31.1172 3.53146 30.6984 3.56896C29.7109 3.65646 28.5172 4.11896 27.7422 4.69396L27.3547 4.98146L26.7734 4.82521C24.2422 4.13771 19.2547 3.54396 15.9672 3.54396C12.6797 3.54396 7.69219 4.13771 5.16094 4.82521L4.57969 4.98146L4.19219 4.69396C3.41719 4.11896 2.22344 3.65646 1.23594 3.56896C0.817188 3.53146 0.779688 3.53771 0.635938 3.68146ZM19.3734 4.63771C22.3984 4.88771 25.0672 5.30646 26.7359 5.78771C27.0984 5.89396 27.4484 5.98146 27.5109 5.98146C27.5797 5.98146 27.8422 5.81271 28.0984 5.61271C28.7609 5.08146 29.5484 4.71896 30.3547 4.57521C30.5797 4.53146 30.5859 4.53771 30.6297 4.76271C30.6859 5.08146 30.6172 5.94396 30.4922 6.35646C30.4359 6.54396 30.3047 6.87521 30.1984 7.08771L30.0047 7.48146L30.1984 8.08771C30.5547 9.18146 30.7547 10.244 30.9172 11.8252C31.0234 12.9315 31.0297 18.0877 30.9172 19.2002C30.7547 20.8377 30.5234 22.0315 30.1609 23.069C29.9922 23.5377 29.9984 23.5877 30.1859 23.944C30.4984 24.5315 30.6109 25.019 30.6172 25.7752C30.6234 26.1565 30.6047 26.4877 30.5797 26.5127C30.5109 26.5815 29.5297 26.3065 29.0609 26.0877C28.8234 25.969 28.4109 25.7065 28.1484 25.494C27.8234 25.2315 27.6109 25.1065 27.4984 25.1065C27.4047 25.1065 27.0422 25.1877 26.6922 25.2877C24.0984 26.0377 19.6609 26.5627 15.9672 26.5627C12.2734 26.5627 7.83594 26.0377 5.24219 25.2877C4.89219 25.1877 4.52969 25.1065 4.43594 25.1065C4.32344 25.1065 4.11094 25.2315 3.78594 25.494C3.52344 25.7065 3.11719 25.969 2.87344 26.0877C2.40469 26.3065 1.42344 26.5815 1.35469 26.5127C1.32969 26.4877 1.31094 26.1565 1.31719 25.7752C1.32344 25.019 1.43594 24.5315 1.74844 23.944C1.93594 23.5877 1.94219 23.5377 1.77344 23.069C1.41094 22.0315 1.17969 20.8377 1.01719 19.2002C0.904688 18.0877 0.910938 12.9315 1.01719 11.8252C1.17969 10.244 1.37969 9.18146 1.73594 8.08771L1.92969 7.48146L1.73594 7.08771C1.62969 6.87521 1.49844 6.54396 1.44219 6.35646C1.31719 5.94396 1.24844 5.08146 1.30469 4.76271C1.34844 4.53771 1.35469 4.53146 1.57969 4.57521C2.38594 4.71896 3.17344 5.08146 3.83594 5.61271C4.09219 5.81271 4.35469 5.98146 4.42344 5.98146C4.48594 5.98146 4.83594 5.89396 5.19844 5.78771C7.17969 5.21271 10.7234 4.71896 14.2484 4.51896C15.1359 4.46896 18.2172 4.54396 19.3734 4.63771Z" fill="white"/>
<path d="M27.2919 7.10646C27.1107 7.18146 26.8544 7.58771 26.4044 8.51271C26.0482 9.23771 25.5294 10.6815 25.5294 10.9315C25.5294 11.2627 25.8919 11.494 26.1919 11.344C26.3482 11.2752 26.4107 11.1502 26.6544 10.419C26.8107 9.95646 27.0482 9.34396 27.1857 9.05646C27.4669 8.44396 27.4419 8.42521 27.8107 9.48146C28.5419 11.6002 28.8232 13.4502 28.7607 15.7752C28.7232 17.1377 28.6419 17.869 28.3982 19.1065C28.1544 20.3502 27.5607 22.3565 27.4669 22.2565C27.3607 22.144 26.7794 20.3315 26.5357 19.3627C26.1357 17.7815 26.0169 16.8127 26.0044 15.2002C26.0044 14.444 26.0107 13.5752 26.0294 13.2752C26.0607 12.7502 26.0544 12.7127 25.9107 12.6002C25.7169 12.4377 25.4544 12.4502 25.2919 12.6252C25.0982 12.8315 25.0044 13.9752 25.0482 15.5127C25.1294 18.0377 25.6669 20.394 26.7919 23.1002C27.0732 23.7627 27.1419 23.8815 27.3044 23.9502C27.5919 24.0752 27.8044 23.969 27.9732 23.619C28.6607 22.1502 29.2669 19.9627 29.5669 17.8565C29.7044 16.8565 29.7482 14.8377 29.6607 13.7002C29.4919 11.594 28.9294 9.47521 28.0669 7.65021C27.7982 7.08146 27.6357 6.96896 27.2919 7.10646Z" fill="white"/>
<path d="M17.692 9.17519C17.5795 9.26269 17.5295 9.36269 17.5295 9.50644C17.5295 9.84394 17.6545 9.94394 18.117 9.98144L18.5233 10.0127L18.0295 10.6689C17.4858 11.3877 17.417 11.6189 17.6545 11.8564C17.767 11.9689 17.8608 11.9814 18.692 11.9814C19.192 11.9814 19.6545 11.9564 19.717 11.9189C19.7795 11.8877 19.8545 11.7752 19.892 11.6752C20.017 11.3189 19.7295 11.0439 19.2358 11.0439C19.0858 11.0439 18.967 11.0252 18.967 11.0064C18.967 10.9877 19.1358 10.7502 19.342 10.4814C19.8983 9.75019 19.9795 9.59394 19.9108 9.40019C19.792 9.08769 19.6358 9.04394 18.7108 9.04394C17.942 9.04394 17.842 9.05644 17.692 9.17519Z" fill="white"/>
<path d="M13.7796 11.6252C13.4608 11.7877 13.4233 12.2627 13.7171 12.4189C13.7796 12.4564 14.2171 12.4814 14.6796 12.4814C15.1483 12.4814 15.5296 12.4939 15.5296 12.5127C15.5296 12.5252 15.0796 13.1689 14.5296 13.9377C13.6858 15.1252 13.5296 15.3752 13.5296 15.5627C13.5296 15.9627 13.6108 15.9814 15.2296 15.9814C16.5733 15.9814 16.6608 15.9752 16.7796 15.8564C16.9483 15.6877 16.9421 15.3502 16.7733 15.1939C16.6608 15.0939 16.5108 15.0689 15.7796 15.0439L14.9171 15.0127L15.9108 13.6189C17.0046 12.0814 17.0671 11.9314 16.7421 11.6752C16.5858 11.5502 16.4983 11.5439 15.2546 11.5439C14.3233 11.5439 13.8921 11.5689 13.7796 11.6252Z" fill="white"/>
<path d="M8.81094 15.6002C8.50469 15.7252 8.41094 16.119 8.62344 16.3565C8.72969 16.469 8.82969 16.4815 10.0734 16.494L11.4172 16.5127L9.99844 18.1315C9.21719 19.0252 8.55469 19.819 8.52344 19.9002C8.46094 20.069 8.52969 20.2877 8.68594 20.419C8.85469 20.5627 12.2922 20.594 12.6172 20.4565C12.8547 20.3565 12.9484 20.1627 12.8797 19.8877C12.8109 19.6127 12.6484 19.5752 11.2984 19.544L10.0422 19.5127L10.9172 18.5127C12.9047 16.244 12.9047 16.244 12.9047 16.019C12.9047 15.8877 12.8547 15.769 12.7734 15.694C12.6484 15.5815 12.5109 15.5752 10.7859 15.5627C9.76719 15.5565 8.87969 15.5752 8.81094 15.6002Z" fill="white"/>
</svg>
