<svg width="32" height="32" viewBox="0 0 32 32" fill="none" xmlns="http://www.w3.org/2000/svg">
<path d="M15.7686 2.07495C15.6749 2.1187 14.2874 4.4687 11.5999 9.11871C9.38739 12.9562 7.50614 16.2375 7.41864 16.4125C7.15614 16.9312 6.82489 17.9625 6.67489 18.7062C6.49364 19.625 6.47489 21.2937 6.64364 22.1562C7.03114 24.1187 7.83739 25.6937 9.18114 27.0875C12.2374 30.2562 17.0874 30.9125 20.8436 28.6562C23.2311 27.225 24.8061 24.95 25.3561 22.1562C25.5249 21.2937 25.5061 19.625 25.3249 18.7062C25.1749 17.9625 24.8436 16.9312 24.5811 16.4125C24.4936 16.2375 22.6124 12.9562 20.3999 9.11871C16.0249 1.53745 16.2311 1.84995 15.7686 2.07495ZM19.7624 10.0125C21.8061 13.5625 23.5561 16.6062 23.6436 16.7812C23.8811 17.2625 24.1624 18.1 24.3249 18.8187C24.5061 19.6562 24.5249 21.225 24.3561 22.075C23.8999 24.375 22.5311 26.4 20.5936 27.6375C19.7061 28.2125 18.6249 28.6437 17.5749 28.8562C16.7999 29.0125 15.1686 29.0062 14.4061 28.85C9.24364 27.7812 6.26864 22.575 8.00614 17.6437C8.11239 17.3437 8.27489 16.95 8.35614 16.7812C8.61239 16.275 15.9624 3.56245 15.9999 3.56245C16.0186 3.56245 17.7124 6.46871 19.7624 10.0125Z" fill="white"/>
<path d="M9.65625 20.1562C9.53125 20.275 9.5 20.3687 9.5 20.6187C9.5 21.7437 9.96875 23.2 10.6438 24.1812C10.9375 24.6125 11.7188 25.4 12.1813 25.7437C13.2 26.4937 14.6813 27 15.8625 27C16.2625 27 16.5 26.8125 16.5 26.5C16.5 26.15 16.2938 26.025 15.6563 25.9812C13.5 25.825 11.6813 24.4937 10.8813 22.4937C10.675 21.9875 10.5 21.1125 10.5 20.6125C10.5 20.2375 10.3063 20 10 20C9.88125 20 9.75 20.0562 9.65625 20.1562Z" fill="white"/>
</svg>
