<svg width="32" height="32" viewBox="0 0 32 32" fill="none" xmlns="http://www.w3.org/2000/svg">
<path d="M10.2861 1.76242C10.0923 1.97492 10.1548 2.25617 10.4611 2.60617C11.0798 3.31242 11.2298 4.03117 10.9111 4.71867C10.8173 4.90617 10.5173 5.31242 10.2423 5.61867C9.16731 6.80617 8.94856 7.83742 9.51731 8.99367C9.63606 9.23742 9.88606 9.59992 10.0673 9.79992C10.3423 10.1062 10.4423 10.1687 10.6048 10.1687C10.8736 10.1687 11.0548 9.99367 11.0548 9.73117C11.0548 9.56242 10.9923 9.43742 10.7736 9.19367C10.3486 8.71242 10.1673 8.29367 10.1673 7.81867C10.1673 7.28117 10.3798 6.86242 11.0048 6.16867C12.0673 4.99367 12.2861 3.95617 11.7173 2.80617C11.5986 2.56242 11.3548 2.20617 11.1798 2.00617C10.8923 1.69367 10.8298 1.64992 10.6236 1.64992C10.4736 1.64992 10.3486 1.69367 10.2861 1.76242Z" fill="white"/>
<path d="M15.9111 1.76242C15.7173 1.97492 15.7798 2.25617 16.0861 2.60617C16.7048 3.31242 16.8548 4.03117 16.5361 4.71867C16.4423 4.90617 16.1423 5.31242 15.8673 5.61867C14.7923 6.80617 14.5736 7.83742 15.1423 8.99367C15.2611 9.23742 15.5111 9.59992 15.6923 9.79992C15.9673 10.1062 16.0673 10.1687 16.2298 10.1687C16.4986 10.1687 16.6798 9.99367 16.6798 9.73117C16.6798 9.56242 16.6173 9.43742 16.3986 9.19367C15.9736 8.71242 15.7923 8.29367 15.7923 7.81867C15.7923 7.28117 16.0048 6.86242 16.6298 6.16867C17.6923 4.99367 17.9111 3.95617 17.3423 2.80617C17.2236 2.56242 16.9798 2.20617 16.8048 2.00617C16.5173 1.69367 16.4548 1.64992 16.2486 1.64992C16.0986 1.64992 15.9736 1.69367 15.9111 1.76242Z" fill="white"/>
<path d="M21.5361 1.76242C21.3423 1.97492 21.4048 2.25617 21.7111 2.60617C22.3298 3.31242 22.4798 4.03117 22.1611 4.71867C22.0673 4.90617 21.7673 5.31242 21.4923 5.61867C20.4173 6.80617 20.1986 7.83742 20.7673 8.99367C20.8861 9.23742 21.1361 9.59992 21.3173 9.79992C21.5923 10.1062 21.6923 10.1687 21.8548 10.1687C22.1236 10.1687 22.3048 9.99367 22.3048 9.73117C22.3048 9.56242 22.2423 9.43742 22.0236 9.19367C21.5986 8.71242 21.4173 8.29367 21.4173 7.81867C21.4173 7.28117 21.6298 6.86242 22.2548 6.16867C23.3173 4.99367 23.5361 3.95617 22.9673 2.80617C22.8486 2.56242 22.6048 2.20617 22.4298 2.00617C22.1423 1.69367 22.0798 1.64992 21.8736 1.64992C21.7236 1.64992 21.5986 1.69367 21.5361 1.76242Z" fill="white"/>
<path d="M13.1983 10.15C12.9295 10.2562 12.8483 10.475 12.8983 10.975C12.9858 11.85 13.2295 12.4937 13.6545 12.9625C13.8108 13.1312 13.8545 13.2187 13.7983 13.2375C13.7483 13.25 13.417 13.3375 13.0545 13.4312C11.4108 13.85 9.86701 14.6875 8.42326 15.9375C7.71076 16.5562 7.14201 17.175 6.46076 18.0812C6.01701 18.6687 5.91077 18.7687 5.56077 18.9437C5.16702 19.15 5.14827 19.15 4.26701 19.15H3.36702L3.09202 18.9375C2.10452 18.1875 1.14827 18.1562 0.523265 18.85C0.192015 19.2187 0.0607654 19.5937 0.0107654 20.3187C-0.0767346 21.5625 0.373265 22.4375 1.21077 22.6875C1.76077 22.8437 2.27952 22.7062 3.00452 22.2062C3.34202 21.975 3.39202 21.9625 3.82952 21.9625H4.29202L4.08577 22.5125C3.97327 22.8125 3.79202 23.4187 3.67952 23.8687C3.56702 24.3125 3.47327 24.6875 3.46077 24.7C3.45452 24.7062 3.27952 24.7562 3.07952 24.8125C1.91702 25.1125 0.979515 25.9625 0.723265 26.9437C0.667015 27.175 0.573265 27.3312 0.385765 27.5125C0.0795154 27.8125 -0.0329846 28.125 0.0107654 28.5312C0.0795154 29.1187 0.435765 29.6125 0.979515 29.8812L1.33577 30.0562L5.96076 30.075C8.50451 30.0875 10.6795 30.075 10.792 30.0562C11.1858 29.9812 11.367 29.6 11.1545 29.3C11.067 29.1875 10.9233 29.1812 6.29202 29.15C1.69827 29.1187 1.51702 29.1125 1.32327 28.9937C1.10452 28.8687 0.910765 28.5312 0.942015 28.35C0.960765 28.25 1.86076 28.2437 15.992 28.2437C30.1233 28.2437 31.0233 28.25 31.042 28.35C31.0795 28.5312 30.8608 28.9 30.6545 29.0125C30.4733 29.1125 29.8045 29.1187 21.4483 29.1375L12.4358 29.15L12.3108 29.3125C12.142 29.5312 12.1483 29.6687 12.3295 29.8812L12.4795 30.0562H21.567H30.6483L31.0045 29.8812C31.617 29.5812 31.9545 29.0562 31.9608 28.3937C31.9608 28.05 31.9358 27.9437 31.792 27.7312C31.5483 27.3625 31.3108 27.275 30.5545 27.275C30.2045 27.275 29.9295 27.2562 29.942 27.225C30.3608 26.4125 30.3358 26.5187 30.3295 25.3375C30.3295 24.7375 30.292 23.975 30.2483 23.65C29.5295 18.0187 26.3483 14.5937 20.7483 13.4312C20.0233 13.2812 19.917 13.2875 19.7295 13.45C19.5795 13.575 19.5795 13.975 19.7295 14.1C19.7858 14.1562 20.2045 14.275 20.6483 14.3687C24.2733 15.1312 26.9295 17.05 28.242 19.8562C28.717 20.8687 29.142 22.35 29.2795 23.4625L29.317 23.8062L27.8858 22.3812C26.8608 21.3687 26.417 20.9625 26.3108 20.9625C26.2358 20.9625 26.0858 21.05 25.9795 21.15C25.8295 21.3062 25.7983 21.375 25.8358 21.5125C25.8608 21.6187 26.492 22.3 27.5795 23.4C29.392 25.2312 29.4295 25.2812 29.4295 25.8812C29.4295 26.2375 29.142 26.7687 28.8358 26.975C28.6983 27.075 28.4295 27.1812 28.242 27.2125C28.0295 27.25 26.767 27.2687 25.0233 27.2625L22.1545 27.2437L22.0795 26.8687C21.892 25.95 21.5233 25.35 20.8795 24.9187C20.417 24.6062 20.042 24.4812 19.292 24.3875C18.8108 24.325 18.7295 24.3312 18.5858 24.425C18.317 24.6 18.2795 24.7625 18.3545 25.3562C18.4358 25.9812 18.6045 26.4875 18.867 26.8937C18.967 27.0562 19.0545 27.2125 19.0545 27.2312C19.0545 27.2562 18.642 27.275 18.1295 27.275H17.2108L16.3858 26.4437C15.9358 25.9937 15.5233 25.5312 15.467 25.4187C15.4108 25.3062 15.367 25.0937 15.367 24.9375C15.367 24.6937 15.4045 24.6125 15.592 24.4C15.867 24.0937 16.4233 23.825 17.1233 23.6437C17.792 23.475 19.592 23.4125 20.6295 23.5187C21.6295 23.625 22.767 23.8625 23.6795 24.1625L24.4608 24.4187L25.0858 25.0312C25.4295 25.3687 25.7795 25.6687 25.867 25.7C26.0608 25.775 26.392 25.6562 26.4545 25.4937C26.567 25.1937 26.4983 25.0875 25.5983 24.1625C24.6108 23.15 24.417 22.8937 24.0545 22.1375C23.7545 21.5125 23.567 20.8062 23.5108 20.1062C23.4545 19.3687 23.5358 19.3625 24.2358 20.05C24.692 20.4937 24.8233 20.5875 24.9858 20.5875C25.2358 20.5875 25.4295 20.3937 25.4295 20.1437C25.4295 19.9812 25.3358 19.85 24.8608 19.3625C24.2295 18.725 24.0108 18.5875 23.6108 18.5875C22.992 18.5875 22.5545 19.0937 22.5545 19.8125C22.5545 20.6687 22.892 22 23.2983 22.75C23.3983 22.9375 23.467 23.0875 23.4483 23.0875C23.4358 23.0875 23.2045 23.0312 22.9358 22.9625C21.6733 22.6437 20.917 22.5562 19.242 22.5625C18.0233 22.5625 17.5483 22.5812 17.2233 22.6562C16.8358 22.7437 16.8045 22.7437 16.842 22.6562C17.1295 21.9687 17.2045 21.6 17.2045 20.775C17.2108 20.0562 17.1858 19.8625 17.067 19.4625C16.5483 17.8062 15.317 16.6312 13.5858 16.1375C13.1608 16.0187 12.9358 15.9937 12.0858 15.9937C10.942 15.9937 10.4545 16.0937 9.47326 16.525C9.17326 16.6562 8.94201 16.7375 8.96076 16.7062C8.98576 16.675 9.23576 16.4687 9.52326 16.2437C10.9233 15.15 12.5358 14.4187 14.2233 14.1187C14.5295 14.0625 15.2733 13.9937 15.892 13.9625C16.5045 13.925 17.1733 13.8562 17.3858 13.8C18.717 13.4562 19.4358 12.525 19.5858 10.9562C19.6295 10.5125 19.6233 10.475 19.4733 10.3C19.3233 10.125 19.292 10.1187 18.8545 10.1375C18.3108 10.1562 17.767 10.2812 17.3233 10.5C16.9983 10.6562 16.442 11.1375 16.317 11.3687C16.2483 11.4937 16.2483 11.4875 16.142 11.3375C15.9295 11.0312 15.5045 10.6625 15.1733 10.5062C14.5983 10.225 13.5108 10.0312 13.1983 10.15ZM14.717 11.3437C15.2483 11.5937 15.592 12.0812 15.717 12.7375L15.7608 12.9812L15.492 12.9375C15.1108 12.875 14.5795 12.6 14.3545 12.3437C14.1233 12.0812 13.9483 11.7062 13.892 11.3437L13.8483 11.0687L14.092 11.1125C14.2233 11.1375 14.5108 11.2375 14.717 11.3437ZM18.592 11.35C18.4608 12.1812 17.8295 12.8062 16.992 12.9375L16.7233 12.9812L16.767 12.7375C16.792 12.6062 16.8983 12.3125 17.0108 12.0875C17.2358 11.6375 17.5858 11.3437 18.1108 11.1875C18.6045 11.0312 18.642 11.0437 18.592 11.35ZM13.4608 17.0875C14.3233 17.3625 15.017 17.8187 15.4733 18.4125C16.667 19.9562 16.5608 21.925 15.2108 23.3875C14.967 23.6625 14.7108 23.9625 14.6545 24.0625L14.5483 24.2437L13.4733 24.25C12.4858 24.25 12.3545 24.2687 11.842 24.425C10.8045 24.7375 10.1045 25.1562 9.35451 25.9L8.87326 26.3812L8.68576 25.9875C8.23576 25.0312 7.38577 24.5 6.06702 24.3687C5.69827 24.3312 5.58577 24.3437 5.45451 24.425C5.22952 24.575 5.19202 24.7375 5.24827 25.3187C5.30452 25.9562 5.49827 26.5437 5.77326 26.9375C5.89201 27.1062 5.96702 27.25 5.93577 27.2625C5.77952 27.3125 5.12327 27.1312 4.89827 26.975C4.56077 26.7437 4.30452 26.2375 4.30452 25.8062C4.30452 25.375 4.46077 24.5 4.65452 23.8062C4.91077 22.9187 5.25452 22.025 5.34827 22.025C5.55452 22.025 5.95451 22.3187 6.76076 23.05C7.62951 23.8375 8.41701 24.4125 8.94826 24.65C9.20451 24.7625 9.26701 24.7687 9.41076 24.7C9.50451 24.6562 9.62326 24.5437 9.67326 24.4562C9.81701 24.2 9.66701 23.975 9.15451 23.7C8.58576 23.3875 8.21076 23.1 7.31076 22.2812C5.97951 21.075 5.86076 21.025 4.17952 21.025H3.01077L2.66702 21.2937C2.47327 21.4437 2.16702 21.6312 1.99202 21.7062C1.69202 21.8375 1.64202 21.8375 1.43577 21.7625C1.07952 21.6312 0.960765 21.325 0.960765 20.525C0.960765 19.975 0.979515 19.8312 1.09202 19.65C1.38577 19.15 1.72952 19.1625 2.54827 19.7187L3.11077 20.1L4.25452 20.075C5.60452 20.05 5.75451 20.0062 6.67951 19.375C9.38576 17.525 9.97326 17.2062 11.1233 16.9625C11.617 16.8625 12.967 16.9312 13.4608 17.0875ZM14.1983 25.1875C14.3233 25.2125 14.4295 25.25 14.4295 25.2812C14.4295 25.3125 14.492 25.4937 14.5608 25.6937C14.667 25.9687 14.817 26.175 15.2483 26.6187C15.5545 26.9375 15.8045 27.2125 15.8045 27.2312C15.8045 27.2562 14.367 27.275 12.617 27.275H9.42326L9.49826 27.1375C9.62951 26.8875 10.517 26.0625 10.8858 25.8437C11.3608 25.5625 11.9233 25.3437 12.4233 25.2437C12.867 25.1562 13.8108 25.125 14.1983 25.1875ZM6.96076 25.5187C7.51076 25.7625 7.92951 26.325 8.02951 26.9625L8.07326 27.2312L7.82951 27.1875C7.45451 27.1187 6.98576 26.8812 6.74826 26.6437C6.51076 26.4062 6.27326 25.9375 6.20451 25.5625L6.16077 25.3187L6.43576 25.3625C6.58576 25.3875 6.82326 25.4562 6.96076 25.5187ZM19.9983 25.4875C20.4358 25.6687 20.7233 25.9437 20.9233 26.35C21.0233 26.5687 21.1295 26.85 21.1545 26.9875L21.1983 27.2312L20.9545 27.1875C20.4983 27.1062 19.9358 26.7875 19.7233 26.4812C19.5108 26.1812 19.317 25.7125 19.3108 25.4687C19.3045 25.3312 19.3233 25.325 19.542 25.3625C19.6795 25.3812 19.8795 25.4375 19.9983 25.4875ZM3.38577 26.0812C3.41077 26.3937 3.51077 26.6812 3.79202 27.225C3.80452 27.2562 3.32327 27.275 2.71702 27.275C1.99827 27.275 1.61702 27.25 1.61702 27.2125C1.61702 27.0875 1.86702 26.6562 2.06702 26.425C2.35452 26.1 2.97327 25.7375 3.27952 25.7187C3.32327 25.7125 3.36077 25.8687 3.38577 26.0812Z" fill="white"/>
</svg>
