<svg width="32" height="32" viewBox="0 0 32 32" fill="none" xmlns="http://www.w3.org/2000/svg">
<path d="M1.67367 1.44497C1.26117 1.65122 1.27992 1.31997 1.27992 8.03247C1.27992 14.77 1.26117 14.42 1.68617 14.62C1.86742 14.7075 2.56742 14.72 7.96742 14.72C13.3674 14.72 14.0674 14.7075 14.2487 14.62C14.6737 14.42 14.6549 14.77 14.6549 8.03247C14.6549 1.29497 14.6737 1.64497 14.2487 1.44497C14.0674 1.35747 13.3737 1.34497 7.95492 1.34497C2.56117 1.34497 1.84867 1.35747 1.67367 1.44497ZM13.2799 8.03247V13.345H7.96742H2.65492V8.03247V2.71997H7.96742H13.2799V8.03247Z" fill="white"/>
<path d="M17.6737 1.44497C17.2612 1.65122 17.2799 1.31997 17.2799 8.03247C17.2799 14.77 17.2612 14.42 17.6862 14.62C17.8674 14.7075 18.5674 14.72 23.9674 14.72C29.3674 14.72 30.0674 14.7075 30.2487 14.62C30.6737 14.42 30.6549 14.77 30.6549 8.03247C30.6549 1.29497 30.6737 1.64497 30.2487 1.44497C30.0674 1.35747 29.3737 1.34497 23.9549 1.34497C18.5612 1.34497 17.8487 1.35747 17.6737 1.44497ZM29.2799 8.03247V13.345H23.9674H18.6549V8.03247V2.71997H23.9674H29.2799V8.03247Z" fill="white"/>
<path d="M1.67367 17.445C1.26117 17.6512 1.27992 17.32 1.27992 24.0325C1.27992 30.77 1.26117 30.42 1.68617 30.62C1.86742 30.7075 2.56742 30.72 7.96742 30.72C13.3674 30.72 14.0674 30.7075 14.2487 30.62C14.6737 30.42 14.6549 30.77 14.6549 24.0325C14.6549 17.295 14.6737 17.645 14.2487 17.445C14.0674 17.3575 13.3737 17.345 7.95492 17.345C2.56117 17.345 1.84867 17.3575 1.67367 17.445ZM13.2799 24.0325V29.345H7.96742H2.65492V24.0325V18.72H7.96742H13.2799V24.0325Z" fill="white"/>
<path d="M23.6736 17.4449C23.2861 17.6387 23.2799 17.6699 23.2799 20.6512V23.3449H20.5861C17.5924 23.3449 17.5674 23.3449 17.3799 23.7512C17.2549 24.0074 17.2549 24.0574 17.3799 24.3137C17.5674 24.7199 17.5924 24.7199 20.5861 24.7199H23.2799V27.4137C23.2799 30.4074 23.2799 30.4324 23.6861 30.6199C23.9424 30.7449 23.9924 30.7449 24.2486 30.6199C24.6549 30.4324 24.6549 30.4074 24.6549 27.4137V24.7199H27.3486C30.3424 24.7199 30.3674 24.7199 30.5549 24.3137C30.6799 24.0574 30.6799 24.0074 30.5549 23.7512C30.3674 23.3449 30.3424 23.3449 27.3486 23.3449H24.6549V20.6512C24.6549 17.6574 24.6549 17.6324 24.2486 17.4449C23.9924 17.3199 23.9236 17.3199 23.6736 17.4449Z" fill="white"/>
</svg>
