<svg width="32" height="32" viewBox="0 0 32 32" fill="none" xmlns="http://www.w3.org/2000/svg">
<path d="M7.51504 0.0687523C6.49004 0.268751 5.60879 1.23125 5.45254 2.325C5.37129 2.85625 5.37129 27.0313 5.45254 27.5625C5.53379 28.1188 5.87754 28.8 6.25254 29.1313C6.50879 29.3563 7.07754 29.675 7.40879 29.775C7.50254 29.8063 7.51504 29.9125 7.51504 30.9063V32H9.14004H10.765V30.9375V29.875H16.0775H21.39V30.9375V32H23.015H24.64V30.9063C24.64 29.9125 24.6525 29.8063 24.7525 29.775C25.0775 29.675 25.6463 29.3563 25.9025 29.1313C26.2775 28.8 26.6213 28.1188 26.7025 27.5625C26.7838 27.0313 26.7838 2.85625 26.7025 2.325C26.5463 1.2 25.665 0.268751 24.5838 0.0625019C24.165 -0.0187492 7.92129 -0.0124969 7.51504 0.0687523ZM24.5525 1.15625C24.965 1.275 25.34 1.60625 25.5213 2.0125L25.6713 2.34375V14.9063C25.6713 25.0625 25.6588 27.5125 25.59 27.7C25.4588 28.075 25.1838 28.3938 24.8213 28.5938L24.4838 28.7813H16.0775H7.67129L7.33379 28.5938C6.97129 28.3938 6.69629 28.075 6.56504 27.7C6.49629 27.5125 6.48379 25.0625 6.48379 14.9063V2.34375L6.63379 2.0125C6.81504 1.61875 7.18379 1.28125 7.57754 1.15625C8.01504 1.025 24.1025 1.01875 24.5525 1.15625ZM9.70254 30.4063V30.9375H9.17129H8.64004V30.4063V29.875H9.17129H9.70254V30.4063ZM23.515 30.4063V30.9375H22.9838H22.4525V30.4063V29.875H22.9838H23.515V30.4063Z" fill="white"/>
<path d="M7.55889 2.1625C7.53389 2.1875 7.51514 2.43125 7.51514 2.7V3.1875H8.07764H8.64638L8.62763 2.66875L8.60888 2.15625L8.10889 2.1375C7.82764 2.13125 7.58389 2.1375 7.55889 2.1625Z" fill="white"/>
<path d="M15.2777 2.21879C14.4027 2.41254 13.4777 3.04379 12.9777 3.79379C12.8465 3.98754 12.659 4.39379 12.5527 4.68754C12.3965 5.13754 12.3715 5.31254 12.3652 5.84379C12.3652 6.90004 12.7215 7.76879 13.4527 8.50004C14.9027 9.94379 17.259 9.94379 18.7027 8.50004C19.4277 7.77504 19.7902 6.88754 19.7902 5.84379C19.784 5.31254 19.759 5.13754 19.6027 4.68754C19.3715 4.02504 19.0527 3.53754 18.5652 3.10004C17.684 2.30004 16.4402 1.96879 15.2777 2.21879ZM16.4777 3.25004C17.6152 3.43754 18.5465 4.37504 18.7027 5.48129C18.8777 6.77504 18.084 8.03129 16.8527 8.40629C16.459 8.52504 15.6965 8.52504 15.3027 8.40629C14.3402 8.11254 13.5965 7.24379 13.459 6.25004C13.2465 4.68129 14.384 3.31879 16.0152 3.19379C16.0652 3.19379 16.2715 3.21254 16.4777 3.25004Z" fill="white"/>
<path d="M15.6842 4.3375C14.9717 4.53125 14.5029 5.1375 14.5029 5.85625C14.5029 6.30625 14.6342 6.64375 14.9404 6.9625C15.2654 7.3 15.5904 7.4375 16.0779 7.4375C16.5654 7.4375 16.8904 7.3 17.2154 6.9625C17.5217 6.64375 17.6529 6.30625 17.6529 5.8625C17.6529 4.825 16.6717 4.06875 15.6842 4.3375ZM16.2654 5.375C16.3967 5.375 16.5779 5.6625 16.5779 5.86875C16.5779 6.31875 16.0529 6.55 15.7217 6.2375C15.5592 6.0875 15.5279 5.725 15.6654 5.55C15.7592 5.41875 16.0154 5.3125 16.1279 5.35C16.1779 5.3625 16.2404 5.375 16.2654 5.375Z" fill="white"/>
<path d="M23.5589 2.1625C23.5339 2.1875 23.5151 2.43125 23.5151 2.7V3.1875H24.0776H24.6464L24.6276 2.66875L24.6089 2.15625L24.1089 2.1375C23.8276 2.13125 23.5839 2.1375 23.5589 2.1625Z" fill="white"/>
<path d="M14.6588 10.7875C12.1525 11.2062 9.94629 12.7625 8.64629 15.0312C7.93379 16.2812 7.57754 17.6437 7.57129 19.1625C7.57129 20.55 7.82754 21.7 8.41504 22.9062C9.97129 26.0875 13.2963 27.9875 16.7775 27.6812C19.8213 27.4187 22.3588 25.6875 23.7275 22.95C24.9525 20.5125 24.8588 17.3937 23.5088 15.0312C22.19 12.7312 19.99 11.1937 17.4338 10.7875C16.7025 10.6687 15.3713 10.6687 14.6588 10.7875ZM17.765 11.9312C19.9338 12.475 21.6588 13.8062 22.69 15.75C23.7838 17.8062 23.7963 20.4875 22.715 22.5875C21.4213 25.1 18.9088 26.6375 16.0775 26.6375C12.415 26.6375 9.42129 24.1187 8.72754 20.4625C8.57754 19.65 8.63379 18.1875 8.84629 17.375C9.39629 15.275 10.7775 13.55 12.6775 12.5812C13.5088 12.1562 14.0275 11.9937 15.14 11.7875C15.2275 11.775 15.7338 11.7687 16.265 11.7812C16.9838 11.7937 17.3713 11.8375 17.765 11.9312Z" fill="white"/>
<path d="M14.815 12.9375C12.1712 13.4938 10.19 15.5625 9.76498 18.2063C9.63998 18.9563 9.71498 20.2063 9.92123 20.9063C10.6775 23.4938 12.8525 25.3188 15.4712 25.55C16.6212 25.6563 17.7337 25.4688 18.7462 25C19.4525 24.6688 19.8962 24.3625 20.4962 23.7938C21.7212 22.6188 22.365 21.2 22.4337 19.5188C22.4712 18.5938 22.4025 17.9938 22.1587 17.2563C21.54 15.3625 20.2087 13.9563 18.315 13.2125C17.315 12.8188 15.8962 12.7063 14.815 12.9375ZM17.4212 14.0313C17.965 14.175 18.9837 14.7 19.4337 15.0625C20.2275 15.7 20.915 16.75 21.2025 17.75C21.39 18.4063 21.44 19.5625 21.3025 20.225C20.89 22.2813 19.3275 23.8938 17.2962 24.3813C14.74 24.9875 12.0712 23.5813 11.1087 21.125C10.7275 20.15 10.6587 18.7625 10.9462 17.7625C11.5025 15.8438 13.09 14.375 15.0525 13.9688C15.5962 13.8563 16.89 13.8875 17.4212 14.0313Z" fill="white"/>
<path d="M15.2276 16.6875C13.7151 17.225 13.0151 18.8938 13.6963 20.3438C14.4651 22 16.6588 22.3563 17.9713 21.05C19.1338 19.8875 18.9026 17.8438 17.5026 16.9625C16.8651 16.5625 15.9088 16.4438 15.2276 16.6875ZM16.5901 17.6875C16.9026 17.775 17.4151 18.25 17.5463 18.575C17.6026 18.725 17.6526 19 17.6526 19.1875C17.6526 19.8063 17.3651 20.2938 16.8213 20.5938C15.9901 21.0438 14.9776 20.675 14.6026 19.7813C14.4713 19.4625 14.4776 18.9125 14.6088 18.575C14.7338 18.2688 15.2463 17.775 15.5401 17.6938C15.8088 17.6125 16.3151 17.6125 16.5901 17.6875Z" fill="white"/>
<path d="M7.52754 27.2L7.54629 27.7188H8.07754H8.60879L8.62754 27.2L8.64629 26.6875H8.07754H7.50879L7.52754 27.2Z" fill="white"/>
<path d="M23.5275 27.2L23.5463 27.7188H24.0775H24.6088L24.6275 27.2L24.6463 26.6875H24.0775H23.5088L23.5275 27.2Z" fill="white"/>
<path d="M1.47114 13.4063C1.22114 13.5125 1.09614 13.8125 1.19614 14.0563C1.30239 14.3063 2.94614 15.9188 3.14614 15.9688C3.49614 16.0563 3.82739 15.725 3.77114 15.3438C3.75239 15.175 1.97114 13.3938 1.78989 13.3563C1.71489 13.3438 1.57114 13.3688 1.47114 13.4063Z" fill="white"/>
<path d="M30.3527 13.3625C30.284 13.3688 29.809 13.8 29.2965 14.3125C28.434 15.175 28.3652 15.2625 28.3652 15.475C28.3652 15.65 28.409 15.7375 28.5402 15.85C28.734 16.0188 28.8902 16.0375 29.1277 15.9125C29.3965 15.7688 30.9402 14.175 30.984 13.9938C31.0715 13.65 30.7215 13.3 30.3527 13.3625Z" fill="white"/>
<path d="M0.802637 18.8187C0.677637 18.9187 0.640137 19 0.640137 19.175C0.646387 19.675 0.852637 19.75 2.19639 19.75C3.40889 19.75 3.61514 19.7063 3.74014 19.4C3.83389 19.1687 3.80889 19.0375 3.62139 18.825C3.49639 18.6938 3.45889 18.6875 2.23389 18.6875C1.04639 18.6875 0.958887 18.6938 0.802637 18.8187Z" fill="white"/>
<path d="M28.5341 18.825C28.3466 19.0375 28.3216 19.1687 28.4154 19.4C28.5404 19.7063 28.7466 19.75 29.9591 19.75C31.3029 19.75 31.5091 19.675 31.5154 19.175C31.5154 19 31.4779 18.9187 31.3529 18.8187C31.1966 18.6938 31.1091 18.6875 29.9216 18.6875C28.6966 18.6875 28.6591 18.6938 28.5341 18.825Z" fill="white"/>
<path d="M2.09003 23.3937C1.11503 24.375 1.05253 24.475 1.21503 24.7687C1.32128 24.975 1.45878 25.0562 1.69628 25.0625C1.87753 25.0625 2.00253 24.9688 2.77753 24.2C3.64003 23.3562 3.86503 23.0562 3.78378 22.8312C3.70253 22.5938 3.49628 22.4375 3.26503 22.4375C3.05878 22.4375 2.96503 22.5125 2.09003 23.3937Z" fill="white"/>
<path d="M28.5337 22.575C28.2087 22.9438 28.2837 23.1 29.2525 24.0813C30.2775 25.1188 30.4587 25.2125 30.8025 24.9125C30.9337 24.8 30.9775 24.7125 30.9775 24.5375C30.9775 24.325 30.9087 24.2375 30.0462 23.375C29.19 22.5125 29.09 22.4375 28.8837 22.4375C28.7337 22.4375 28.6212 22.4813 28.5337 22.575Z" fill="white"/>
</svg>
