<svg width="18" height="18" viewBox="0 0 18 18" fill="none" xmlns="http://www.w3.org/2000/svg">
<path d="M7.61012 10.3201C8.65386 11.3789 9.91676 12.1964 11.3101 12.7151L13.1951 11.2151C13.251 11.1766 13.3173 11.156 13.3851 11.156C13.453 11.156 13.5192 11.1766 13.5751 11.2151L17.0751 13.4701C17.208 13.55 17.3205 13.6597 17.4037 13.7905C17.4869 13.9213 17.5385 14.0697 17.5545 14.2239C17.5705 14.3781 17.5504 14.534 17.4959 14.6791C17.4413 14.8242 17.3538 14.9546 17.2401 15.0601L15.6001 16.6801C15.3653 16.9122 15.0766 17.0825 14.7599 17.1758C14.4432 17.2692 14.1083 17.2827 13.7851 17.2151C10.5612 16.5493 7.58969 14.9899 5.21012 12.7151C2.88336 10.4177 1.27326 7.49454 0.575119 4.30011C0.506152 3.98193 0.520547 3.65133 0.616907 3.34035C0.713268 3.02937 0.888327 2.74855 1.12512 2.52511L2.82512 0.885114C2.93032 0.777007 3.05861 0.694101 3.20039 0.642603C3.34217 0.591104 3.49377 0.572348 3.64382 0.587738C3.79388 0.603129 3.93851 0.652267 4.06689 0.731474C4.19526 0.810681 4.30406 0.917903 4.38512 1.04511L6.71512 4.50011C6.75531 4.55437 6.777 4.6201 6.777 4.68761C6.777 4.75513 6.75531 4.82086 6.71512 4.87511L5.18012 6.72011C5.71291 8.08558 6.54299 9.31532 7.61012 10.3201Z" fill="white"/>
</svg>
