<svg width="303" height="56" viewBox="0 0 303 56" fill="none" xmlns="http://www.w3.org/2000/svg">
<path d="M76 20.5C77.2833 20.5 78.4083 20.625 79.375 20.875C80.3417 21.125 81.15 21.4833 81.8 21.95C82.45 22.4167 82.9333 22.975 83.25 23.625C83.5833 24.2583 83.75 24.9667 83.75 25.75C83.75 26.5333 83.5833 27.25 83.25 27.9C82.9333 28.5333 82.45 29.0833 81.8 29.55C81.15 30.0167 80.3417 30.375 79.375 30.625C78.4083 30.875 77.2833 31 76 31H66.75V13.5H81.75V15.375H70.375V20.5H76ZM70.375 22.375V29.125H76C77.2 29.125 78.1417 28.8333 78.825 28.25C79.525 27.65 79.875 26.8167 79.875 25.75C79.875 24.6833 79.525 23.8583 78.825 23.275C78.1417 22.675 77.2 22.375 76 22.375H70.375ZM89.2539 26.875C89.2539 28.4583 90.2122 29.25 92.1289 29.25H95.6289V24.5H92.1289C90.2122 24.5 89.2539 25.2917 89.2539 26.875ZM95.6289 22.75C95.6289 21.55 95.3122 20.6667 94.6789 20.1C94.0622 19.5333 93.2539 19.25 92.2539 19.25C91.5039 19.25 90.7706 19.3667 90.0539 19.6C89.3372 19.8167 88.6956 20.1167 88.1289 20.5L87.2539 19C87.6206 18.75 88.0206 18.5333 88.4539 18.35C88.9039 18.1667 89.3622 18.0167 89.8289 17.9C90.2956 17.7667 90.7539 17.6667 91.2039 17.6C91.6706 17.5333 92.1039 17.5 92.5039 17.5C93.5706 17.5 94.5122 17.625 95.3289 17.875C96.1456 18.125 96.8372 18.4833 97.4039 18.95C97.9706 19.4167 98.3956 19.975 98.6789 20.625C98.9789 21.2583 99.1289 21.9667 99.1289 22.75V31H92.1289C89.8622 31 88.1872 30.6583 87.1039 29.975C86.0372 29.2917 85.5039 28.2583 85.5039 26.875C85.5039 25.4917 86.0372 24.4583 87.1039 23.775C88.1872 23.0917 89.8622 22.75 92.1289 22.75H95.6289ZM116.242 18V31H112.742V25.25H105.992V31H102.492V18H105.992V23.5H112.742V18H116.242ZM119.003 31L122.353 26.175C121.236 25.875 120.42 25.3917 119.903 24.725C119.386 24.0417 119.128 23.2167 119.128 22.25C119.128 20.9333 119.611 19.9 120.578 19.15C121.561 18.3833 123.12 18 125.253 18H132.503V31H129.003V26.5H126.153L123.003 31H119.003ZM129.003 24.75V19.75H125.253C124.503 19.75 123.92 19.9667 123.503 20.4C123.086 20.8167 122.878 21.4333 122.878 22.25C122.878 23.0667 123.086 23.6917 123.503 24.125C123.92 24.5417 124.503 24.75 125.253 24.75H129.003ZM143.503 29.5H144.253C144.753 29.5 145.195 29.2917 145.578 28.875C145.961 28.4583 146.186 27.75 146.253 26.75L147.128 13.5H162.003V31H158.378V15.375H150.503L149.753 26.75C149.636 28.3833 149.178 29.5667 148.378 30.3C147.595 31.0167 146.511 31.375 145.128 31.375C144.695 31.375 144.311 31.3333 143.978 31.25C143.795 31.2167 143.636 31.175 143.503 31.125V29.5ZM173.13 35.5H169.63L171.38 31H169.255L164.005 18H167.505L171.88 28.875H172.13L176.255 18H179.755L173.13 35.5ZM187.89 25.375H185.265V31H181.765V18H185.265V23.625H187.89L191.765 18H195.515L191.14 24.375L195.765 31H191.765L187.89 25.375ZM204.536 29.875C205.069 29.875 205.569 29.775 206.036 29.575C206.503 29.375 206.911 29.0667 207.261 28.65C207.611 28.2167 207.886 27.6583 208.086 26.975C208.303 26.2917 208.411 25.4667 208.411 24.5C208.411 23.5333 208.303 22.7083 208.086 22.025C207.886 21.3417 207.611 20.7917 207.261 20.375C206.911 19.9417 206.503 19.625 206.036 19.425C205.569 19.225 205.069 19.125 204.536 19.125C204.003 19.125 203.503 19.225 203.036 19.425C202.569 19.625 202.161 19.9417 201.811 20.375C201.461 20.7917 201.178 21.3417 200.961 22.025C200.761 22.7083 200.661 23.5333 200.661 24.5C200.661 25.4667 200.761 26.2917 200.961 26.975C201.178 27.6583 201.461 28.2167 201.811 28.65C202.161 29.0667 202.569 29.375 203.036 29.575C203.503 29.775 204.003 29.875 204.536 29.875ZM204.536 17.5C205.653 17.5 206.678 17.6583 207.611 17.975C208.561 18.275 209.369 18.725 210.036 19.325C210.703 19.9083 211.219 20.6417 211.586 21.525C211.969 22.3917 212.161 23.3833 212.161 24.5C212.161 25.6333 211.969 26.6333 211.586 27.5C211.219 28.3667 210.703 29.1 210.036 29.7C209.369 30.2833 208.561 30.725 207.611 31.025C206.678 31.3417 205.653 31.5 204.536 31.5C203.403 31.5 202.369 31.3417 201.436 31.025C200.503 30.725 199.703 30.2833 199.036 29.7C198.369 29.1 197.844 28.3667 197.461 27.5C197.094 26.6333 196.911 25.6333 196.911 24.5C196.911 23.3833 197.094 22.3917 197.461 21.525C197.844 20.6417 198.369 19.9083 199.036 19.325C199.703 18.725 200.503 18.275 201.436 17.975C202.369 17.6583 203.403 17.5 204.536 17.5ZM224.541 28.75L228.666 18H233.791V31H230.291V21.5H230.041L226.416 31H222.441L218.791 21.5H218.541V31H215.041V18H220.166L224.291 28.75H224.541ZM244.282 29.875C244.816 29.875 245.316 29.775 245.782 29.575C246.249 29.375 246.657 29.0667 247.007 28.65C247.357 28.2167 247.632 27.6583 247.832 26.975C248.049 26.2917 248.157 25.4667 248.157 24.5C248.157 23.5333 248.049 22.7083 247.832 22.025C247.632 21.3417 247.357 20.7917 247.007 20.375C246.657 19.9417 246.249 19.625 245.782 19.425C245.316 19.225 244.816 19.125 244.282 19.125C243.749 19.125 243.249 19.225 242.782 19.425C242.316 19.625 241.907 19.9417 241.557 20.375C241.207 20.7917 240.924 21.3417 240.707 22.025C240.507 22.7083 240.407 23.5333 240.407 24.5C240.407 25.4667 240.507 26.2917 240.707 26.975C240.924 27.6583 241.207 28.2167 241.557 28.65C241.907 29.0667 242.316 29.375 242.782 29.575C243.249 29.775 243.749 29.875 244.282 29.875ZM244.282 17.5C245.399 17.5 246.424 17.6583 247.357 17.975C248.307 18.275 249.116 18.725 249.782 19.325C250.449 19.9083 250.966 20.6417 251.332 21.525C251.716 22.3917 251.907 23.3833 251.907 24.5C251.907 25.6333 251.716 26.6333 251.332 27.5C250.966 28.3667 250.449 29.1 249.782 29.7C249.116 30.2833 248.307 30.725 247.357 31.025C246.424 31.3417 245.399 31.5 244.282 31.5C243.149 31.5 242.116 31.3417 241.182 31.025C240.249 30.725 239.449 30.2833 238.782 29.7C238.116 29.1 237.591 28.3667 237.207 27.5C236.841 26.6333 236.657 25.6333 236.657 24.5C236.657 23.3833 236.841 22.3917 237.207 21.525C237.591 20.6417 238.116 19.9083 238.782 19.325C239.449 18.725 240.249 18.275 241.182 17.975C242.116 17.6583 243.149 17.5 244.282 17.5ZM258.287 19.75V29.25H261.412C261.979 29.25 262.495 29.1667 262.962 29C263.445 28.8167 263.854 28.5333 264.187 28.15C264.537 27.7667 264.804 27.275 264.987 26.675C265.187 26.075 265.287 25.35 265.287 24.5C265.287 23.65 265.187 22.925 264.987 22.325C264.804 21.725 264.537 21.2333 264.187 20.85C263.854 20.4667 263.445 20.1917 262.962 20.025C262.495 19.8417 261.979 19.75 261.412 19.75H258.287ZM261.412 18C262.562 18 263.604 18.15 264.537 18.45C265.487 18.75 266.295 19.1833 266.962 19.75C267.629 20.3167 268.137 21 268.487 21.8C268.854 22.6 269.037 23.5 269.037 24.5C269.037 25.5 268.854 26.4 268.487 27.2C268.137 28 267.629 28.6833 266.962 29.25C266.295 29.8167 265.487 30.25 264.537 30.55C263.604 30.85 262.562 31 261.412 31H258.287V35.5H254.787V18H261.412ZM279.151 22.5C281.285 22.5 282.835 22.8833 283.801 23.65C284.785 24.4 285.276 25.4333 285.276 26.75C285.276 28.0667 284.785 29.1083 283.801 29.875C282.835 30.625 281.285 31 279.151 31H271.901V18H275.401V22.5H279.151ZM275.401 24.25V29.25H279.151C279.901 29.25 280.485 29.0417 280.901 28.625C281.318 28.1917 281.526 27.5667 281.526 26.75C281.526 25.9333 281.318 25.3167 280.901 24.9C280.485 24.4667 279.901 24.25 279.151 24.25H275.401ZM295.393 29.75C296.209 29.75 296.968 29.6083 297.668 29.325C298.384 29.0417 299.084 28.6417 299.768 28.125L300.768 29.625C300.451 29.9083 300.076 30.1667 299.643 30.4C299.226 30.6333 298.768 30.8333 298.268 31C297.784 31.15 297.276 31.2667 296.743 31.35C296.209 31.45 295.676 31.5 295.143 31.5C293.959 31.5 292.876 31.3417 291.893 31.025C290.926 30.725 290.101 30.2833 289.418 29.7C288.734 29.1 288.201 28.3667 287.818 27.5C287.451 26.6333 287.268 25.6333 287.268 24.5C287.268 23.3833 287.443 22.3917 287.793 21.525C288.159 20.6417 288.659 19.9083 289.293 19.325C289.943 18.725 290.709 18.275 291.593 17.975C292.476 17.6583 293.451 17.5 294.518 17.5C295.518 17.5 296.459 17.65 297.343 17.95C298.226 18.25 298.993 18.6917 299.643 19.275C300.293 19.8417 300.809 20.5333 301.193 21.35C301.576 22.1667 301.768 23.0917 301.768 24.125V25.875H291.093C291.293 27.2583 291.768 28.25 292.518 28.85C293.284 29.45 294.243 29.75 295.393 29.75ZM294.518 19.125C294.034 19.125 293.584 19.2167 293.168 19.4C292.751 19.5833 292.384 19.875 292.068 20.275C291.768 20.675 291.518 21.1917 291.318 21.825C291.134 22.4583 291.034 23.225 291.018 24.125H298.018C298.018 23.2583 297.918 22.5083 297.718 21.875C297.518 21.2417 297.251 20.725 296.918 20.325C296.601 19.9083 296.226 19.6083 295.793 19.425C295.376 19.225 294.951 19.125 294.518 19.125Z" fill="white"/>
<path d="M75.44 44.25C75.44 44.706 75.272 45.096 74.936 45.42C74.612 45.744 74.09 45.954 73.37 46.05C74.234 46.182 74.882 46.458 75.314 46.878C75.758 47.286 75.98 47.76 75.98 48.3C75.98 48.684 75.89 49.044 75.71 49.38C75.542 49.704 75.278 49.986 74.918 50.226C74.558 50.466 74.102 50.658 73.55 50.802C72.998 50.934 72.338 51 71.57 51H66.26V41.64H71.03C71.798 41.64 72.458 41.712 73.01 41.856C73.562 41.988 74.018 42.174 74.378 42.414C74.738 42.642 75.002 42.918 75.17 43.242C75.35 43.554 75.44 43.89 75.44 44.25ZM71.57 49.74C72.11 49.74 72.53 49.602 72.83 49.326C73.13 49.05 73.28 48.708 73.28 48.3C73.28 47.892 73.13 47.55 72.83 47.274C72.53 46.998 72.11 46.86 71.57 46.86H68.78V49.74H71.57ZM71.03 45.6C71.57 45.6 71.99 45.468 72.29 45.204C72.59 44.928 72.74 44.61 72.74 44.25C72.74 43.89 72.59 43.578 72.29 43.314C71.99 43.038 71.57 42.9 71.03 42.9H68.78V45.6H71.03ZM87.59 46.59H93.17L90.47 39.93H90.29L87.59 46.59ZM92.45 38.4L97.58 51H94.988L93.8 47.94H86.96L85.772 51H83.18L88.31 38.4H92.45ZM101.546 42.9V49.74H103.796C104.204 49.74 104.576 49.68 104.912 49.56C105.26 49.428 105.554 49.224 105.794 48.948C106.046 48.672 106.238 48.318 106.37 47.886C106.514 47.454 106.586 46.932 106.586 46.32C106.586 45.708 106.514 45.186 106.37 44.754C106.238 44.322 106.046 43.968 105.794 43.692C105.554 43.416 105.26 43.218 104.912 43.098C104.576 42.966 104.204 42.9 103.796 42.9H101.546ZM103.796 41.64C104.624 41.64 105.374 41.748 106.046 41.964C106.73 42.18 107.312 42.492 107.792 42.9C108.272 43.308 108.638 43.8 108.89 44.376C109.154 44.952 109.286 45.6 109.286 46.32C109.286 47.04 109.154 47.688 108.89 48.264C108.638 48.84 108.272 49.332 107.792 49.74C107.312 50.148 106.73 50.46 106.046 50.676C105.374 50.892 104.624 51 103.796 51H101.546V54.24H99.0256V41.64H103.796ZM116.756 46.266L120.716 51H117.836L115.316 47.994L112.796 51H109.916L113.876 46.266L110.006 41.64H112.886L115.316 44.556L117.746 41.64H120.626L116.756 46.266ZM124.228 48.03C124.228 49.17 124.918 49.74 126.298 49.74H128.818V46.32H126.298C124.918 46.32 124.228 46.89 124.228 48.03ZM128.818 45.06C128.818 44.196 128.59 43.56 128.134 43.152C127.69 42.744 127.108 42.54 126.388 42.54C125.848 42.54 125.32 42.624 124.804 42.792C124.288 42.948 123.826 43.164 123.418 43.44L122.788 42.36C123.052 42.18 123.34 42.024 123.652 41.892C123.976 41.76 124.306 41.652 124.642 41.568C124.978 41.472 125.308 41.4 125.632 41.352C125.968 41.304 126.28 41.28 126.568 41.28C127.336 41.28 128.014 41.37 128.602 41.55C129.19 41.73 129.688 41.988 130.096 42.324C130.504 42.66 130.81 43.062 131.014 43.53C131.23 43.986 131.338 44.496 131.338 45.06V51H126.298C124.666 51 123.46 50.754 122.68 50.262C121.912 49.77 121.528 49.026 121.528 48.03C121.528 47.034 121.912 46.29 122.68 45.798C123.46 45.306 124.666 45.06 126.298 45.06H128.818ZM143.66 41.64V51H141.14V46.86H136.28V51H133.76V41.64H136.28V45.6H141.14V41.64H143.66ZM153.748 42.9H148.708V51H146.188V41.64H153.748V42.9ZM160.043 50.1C160.631 50.1 161.177 49.998 161.681 49.794C162.197 49.59 162.701 49.302 163.193 48.93L163.913 50.01C163.685 50.214 163.415 50.4 163.103 50.568C162.803 50.736 162.473 50.88 162.113 51C161.765 51.108 161.399 51.192 161.015 51.252C160.631 51.324 160.247 51.36 159.863 51.36C159.011 51.36 158.231 51.246 157.523 51.018C156.827 50.802 156.233 50.484 155.741 50.064C155.249 49.632 154.865 49.104 154.589 48.48C154.325 47.856 154.193 47.136 154.193 46.32C154.193 45.516 154.319 44.802 154.571 44.178C154.835 43.542 155.195 43.014 155.651 42.594C156.119 42.162 156.671 41.838 157.307 41.622C157.943 41.394 158.645 41.28 159.413 41.28C160.133 41.28 160.811 41.388 161.447 41.604C162.083 41.82 162.635 42.138 163.103 42.558C163.571 42.966 163.943 43.464 164.219 44.052C164.495 44.64 164.633 45.306 164.633 46.05V47.31H156.947C157.091 48.306 157.433 49.02 157.973 49.452C158.525 49.884 159.215 50.1 160.043 50.1ZM159.413 42.45C159.065 42.45 158.741 42.516 158.441 42.648C158.141 42.78 157.877 42.99 157.649 43.278C157.433 43.566 157.253 43.938 157.109 44.394C156.977 44.85 156.905 45.402 156.893 46.05H161.933C161.933 45.426 161.861 44.886 161.717 44.43C161.573 43.974 161.381 43.602 161.141 43.314C160.913 43.014 160.643 42.798 160.331 42.666C160.031 42.522 159.725 42.45 159.413 42.45ZM165.166 50.01H165.706C165.862 50.01 166.006 49.98 166.138 49.92C166.27 49.848 166.384 49.734 166.48 49.578C166.588 49.422 166.672 49.212 166.732 48.948C166.804 48.684 166.852 48.348 166.876 47.94L167.236 41.64H175.876V51H173.356V42.9H169.576L169.306 47.94C169.246 49.152 168.958 50.01 168.442 50.514C167.938 51.018 167.236 51.27 166.336 51.27C166.048 51.27 165.784 51.24 165.544 51.18C165.412 51.156 165.286 51.126 165.166 51.09V50.01ZM183.611 44.88C185.147 44.88 186.263 45.156 186.959 45.708C187.667 46.248 188.021 46.992 188.021 47.94C188.021 48.888 187.667 49.638 186.959 50.19C186.263 50.73 185.147 51 183.611 51H178.391V41.64H180.911V44.88H183.611ZM180.911 46.14V49.74H183.611C184.151 49.74 184.571 49.59 184.871 49.29C185.171 48.978 185.321 48.528 185.321 47.94C185.321 47.352 185.171 46.908 184.871 46.608C184.571 46.296 184.151 46.14 183.611 46.14H180.911ZM194.945 41.28C195.329 41.28 195.713 41.316 196.097 41.388C196.481 41.448 196.847 41.538 197.195 41.658C197.555 41.766 197.885 41.904 198.185 42.072C198.497 42.24 198.767 42.426 198.995 42.63L198.275 43.71C197.783 43.338 197.279 43.05 196.763 42.846C196.259 42.642 195.713 42.54 195.125 42.54C194.693 42.54 194.297 42.612 193.937 42.756C193.577 42.888 193.265 43.11 193.001 43.422C192.737 43.722 192.527 44.112 192.371 44.592C192.227 45.072 192.155 45.648 192.155 46.32C192.155 46.992 192.227 47.568 192.371 48.048C192.527 48.528 192.743 48.924 193.019 49.236C193.295 49.536 193.625 49.758 194.009 49.902C194.405 50.034 194.837 50.1 195.305 50.1C195.893 50.1 196.439 49.998 196.943 49.794C197.459 49.59 197.963 49.302 198.455 48.93L199.175 50.01C198.947 50.214 198.677 50.4 198.365 50.568C198.065 50.736 197.735 50.88 197.375 51C197.027 51.108 196.661 51.192 196.277 51.252C195.893 51.324 195.509 51.36 195.125 51.36C194.273 51.36 193.493 51.246 192.785 51.018C192.089 50.802 191.495 50.484 191.003 50.064C190.511 49.632 190.127 49.104 189.851 48.48C189.587 47.856 189.455 47.136 189.455 46.32C189.455 45.516 189.587 44.802 189.851 44.178C190.127 43.542 190.505 43.014 190.985 42.594C191.465 42.162 192.041 41.838 192.713 41.622C193.385 41.394 194.129 41.28 194.945 41.28ZM205.477 46.95H203.587V51H201.067V41.64H203.587V45.69H205.477L208.267 41.64H210.967L207.817 46.23L211.147 51H208.267L205.477 46.95ZM217.822 50.1C218.41 50.1 218.956 49.998 219.46 49.794C219.976 49.59 220.48 49.302 220.972 48.93L221.692 50.01C221.464 50.214 221.194 50.4 220.882 50.568C220.582 50.736 220.252 50.88 219.892 51C219.544 51.108 219.178 51.192 218.794 51.252C218.41 51.324 218.026 51.36 217.642 51.36C216.79 51.36 216.01 51.246 215.302 51.018C214.606 50.802 214.012 50.484 213.52 50.064C213.028 49.632 212.644 49.104 212.368 48.48C212.104 47.856 211.972 47.136 211.972 46.32C211.972 45.516 212.098 44.802 212.35 44.178C212.614 43.542 212.974 43.014 213.43 42.594C213.898 42.162 214.45 41.838 215.086 41.622C215.722 41.394 216.424 41.28 217.192 41.28C217.912 41.28 218.59 41.388 219.226 41.604C219.862 41.82 220.414 42.138 220.882 42.558C221.35 42.966 221.722 43.464 221.998 44.052C222.274 44.64 222.412 45.306 222.412 46.05V47.31H214.726C214.87 48.306 215.212 49.02 215.752 49.452C216.304 49.884 216.994 50.1 217.822 50.1ZM217.192 42.45C216.844 42.45 216.52 42.516 216.22 42.648C215.92 42.78 215.656 42.99 215.428 43.278C215.212 43.566 215.032 43.938 214.888 44.394C214.756 44.85 214.684 45.402 214.672 46.05H219.712C219.712 45.426 219.64 44.886 219.496 44.43C219.352 43.974 219.16 43.602 218.92 43.314C218.692 43.014 218.422 42.798 218.11 42.666C217.81 42.522 217.504 42.45 217.192 42.45Z" fill="white"/>
<path d="M4.19899 0.175781C2.96852 0.791016 3.25173 2.67578 4.59938 2.89062L4.98024 2.95898L4.99977 7.23633L5.02907 11.5137L10.3709 7.92969L15.7224 4.3457V3.65234V2.94922L16.0642 2.89062C16.5427 2.80273 17.0603 2.31445 17.1873 1.8457C17.3826 1.13281 16.9822 0.371094 16.2791 0.107422C16.0935 0.0390625 14.0818 0 10.2732 0C5.00954 0 4.51149 0.00976562 4.19899 0.175781Z" fill="white"/>
<path d="M39.404 0.12683C39.0036 0.312377 38.8279 0.527221 38.4665 1.29871C37.9099 2.49988 37.988 3.62292 38.6911 4.59949L38.9841 5.00964L38.779 5.43933C38.2224 6.60144 38.9353 7.80261 40.1267 7.68542C40.8298 7.6073 41.3083 7.12878 41.699 6.09363C42.0701 5.09753 41.9138 3.95495 41.2888 3.19324L40.9861 2.81238L41.2204 2.31433C41.6306 1.45496 41.4841 0.771361 40.8005 0.263549C40.4783 0.0194082 39.7849 -0.0391855 39.404 0.12683Z" fill="white"/>
<path d="M23.7305 2.51945C23.5449 2.62688 18.6426 5.88859 12.8418 9.78508C5.60547 14.6386 2.22656 16.9726 2.08008 17.1874C1.86523 17.4999 1.85547 17.5976 1.85547 19.5312C1.85547 21.4745 1.86523 21.5624 2.08008 21.8847C2.19727 22.0702 2.45117 22.2948 2.63672 22.3925C2.95898 22.5488 4.16016 22.5585 24.4824 22.539L45.9863 22.5097L46.25 22.3046C46.8945 21.8261 46.9238 21.7382 46.9531 19.7851C46.9922 17.6366 46.9336 17.3241 46.3574 16.8456C45.7715 16.3671 25.3125 2.63664 24.9316 2.48039C24.502 2.29485 24.1309 2.30461 23.7305 2.51945ZM25.5762 8.83781C27.4902 9.2968 28.9844 10.7226 29.5508 12.6464C29.7754 13.4179 29.7754 14.707 29.5508 15.4784C28.8184 17.9589 26.5625 19.5702 24.0625 19.4042C21.2305 19.2089 19.043 16.8847 19.043 14.0624C19.043 10.6347 22.2656 8.05656 25.5762 8.83781Z" fill="white"/>
<path d="M23.7303 11.709C22.3143 12.1387 21.5819 13.7208 22.1776 15.0391C23.2616 17.4317 26.7967 16.6797 26.7967 14.0626C26.7967 12.4512 25.2342 11.2501 23.7303 11.709Z" fill="white"/>
<path d="M45.6544 4.15051C45.1857 4.40442 45.0685 4.5509 44.7365 5.27356C44.1798 6.46496 44.2482 7.54895 44.9318 8.49621L45.2345 8.91614L45.0294 9.34582C44.4728 10.5079 45.1857 11.7091 46.3771 11.5919C47.0802 11.5138 47.5587 11.0353 47.9493 10.0001C48.3204 9.00403 48.1642 7.86145 47.549 7.1095L47.256 6.7384L47.4708 6.32825C48.0177 5.26379 47.4904 4.15051 46.3771 4.03332C46.0939 4.01379 45.8497 4.05286 45.6544 4.15051Z" fill="white"/>
<path d="M4.19922 26.8066V28.125H24.4141H44.6289V26.8066V25.4883H24.4141H4.19922V26.8066Z" fill="white"/>
<path d="M4.19922 32.3242V33.5938H24.4141H44.6289V32.3242V31.0547H24.4141H4.19922V32.3242Z" fill="white"/>
<path d="M4.19922 37.793V39.0625H7.32422H10.4492V37.793V36.5234H7.32422H4.19922V37.793Z" fill="white"/>
<path d="M13.3789 43.2617V50H16.6016H19.8242V43.2617V36.5234H16.6016H13.3789V43.2617Z" fill="white"/>
<path d="M22.7539 37.793V39.0625H24.4141H26.0742V37.793V36.5234H24.4141H22.7539V37.793Z" fill="white"/>
<path d="M29.0039 40.5273V44.5312H32.2266H35.4492V40.5273V36.5234H32.2266H29.0039V40.5273Z" fill="white"/>
<path d="M38.3789 37.793V39.0625H41.5039H44.6289V37.793V36.5234H41.5039H38.3789V37.793Z" fill="white"/>
<path d="M4.19922 43.2617V44.5312H7.32422H10.4492V43.2617V41.9922H7.32422H4.19922V43.2617Z" fill="white"/>
<path d="M22.7539 43.2617V44.5312H24.4141H26.0742V43.2617V41.9922H24.4141H22.7539V43.2617Z" fill="white"/>
<path d="M38.3789 43.2617V44.5312H41.5039H44.6289V43.2617V41.9922H41.5039H38.3789V43.2617Z" fill="white"/>
<path d="M4.19922 48.2324C4.19922 48.8672 4.23828 49.0527 4.42383 49.3262C4.84375 49.9707 5.01953 50 7.89062 50H10.4492V48.7305V47.4609H7.32422H4.19922V48.2324Z" fill="white"/>
<path d="M22.7539 48.7305V50L33.1934 49.9805C43.5742 49.9512 43.6426 49.9512 43.9063 49.7461C44.4336 49.3555 44.5606 49.082 44.6094 48.2422L44.6582 47.4609H33.7012H22.7539V48.7305Z" fill="white"/>
</svg>
