<svg width="26" height="26" viewBox="0 0 26 26" fill="none" xmlns="http://www.w3.org/2000/svg">
<g clip-path="url(#clip0_1842_650)">
<path d="M24.62 14.9718C25.3658 8.69371 24.2617 4.73017 22.27 2.93746L22.271 2.93642C19.0565 -0.125035 8.20021 -0.578161 4.35437 3.07392C2.62729 4.86038 2.01895 7.48226 1.95229 10.7281C1.88562 13.975 1.80645 20.0573 7.47416 21.7073H7.47937L7.47416 24.227C7.47416 24.227 7.43562 25.2479 8.08771 25.4531C8.83354 25.6948 9.17104 25.2208 11.4908 22.45C15.37 22.7864 18.3492 22.0156 18.6877 21.9031C19.471 21.6406 23.9033 21.0541 24.62 14.9718ZM11.8731 20.677C11.8731 20.677 9.41791 23.7385 8.65437 24.5333C8.40437 24.7916 8.13041 24.7677 8.13458 24.2552C8.13458 23.9187 8.15333 20.0718 8.15333 20.0718C3.34812 18.6948 3.63145 13.5156 3.68354 10.8062C3.73562 8.0958 4.23145 5.87601 5.69396 4.38121C9.06791 1.21767 18.5856 1.92496 21.0106 4.20413C23.9752 6.83226 22.92 14.2573 22.9262 14.5104C22.3169 19.5875 18.7252 19.9093 18.0648 20.1291C17.7825 20.2229 15.1627 20.8968 11.8731 20.677Z" fill="white"/>
<path d="M13.2314 4.97607C12.8304 4.97607 12.8304 5.60107 13.2314 5.60628C16.3429 5.63024 18.9054 7.79899 18.9335 11.7771C18.9335 12.1969 19.5481 12.1917 19.5429 11.7719H19.5419C19.5085 7.48545 16.7106 5.00003 13.2314 4.97607Z" fill="white"/>
<path d="M17.3238 11.1176C17.3144 11.5322 17.928 11.552 17.9332 11.1322C17.9842 8.76867 16.5269 6.82179 13.7884 6.61658C13.3874 6.58742 13.3457 7.21762 13.7457 7.24679C16.1207 7.427 17.3717 9.04783 17.3238 11.1176Z" fill="white"/>
<path d="M16.6676 13.8062C16.1531 13.5083 15.6291 13.6937 15.4124 13.9864L14.9593 14.5729C14.7291 14.8708 14.2989 14.8312 14.2989 14.8312C11.1593 14.001 10.3197 10.7156 10.3197 10.7156C10.3197 10.7156 10.2812 10.2708 10.5687 10.0322L11.1354 9.56349C11.4187 9.33849 11.5979 8.79682 11.3093 8.26453C10.5385 6.87182 10.0208 6.39161 9.75723 6.02286C9.48014 5.67599 9.06348 5.59786 8.63014 5.83224H8.62077C7.71973 6.35932 6.73327 7.34578 7.0489 8.3614C7.58744 9.43224 8.57702 12.8458 11.7312 15.4249C13.2135 16.6447 15.5593 17.8947 16.5551 18.1833L16.5645 18.1979C17.5458 18.5249 18.4999 17.4999 19.0093 16.5718V16.5645C19.2353 16.1156 19.1603 15.6906 18.8301 15.4124C18.2447 14.8416 17.3614 14.2114 16.6676 13.8062Z" fill="white"/>
<path d="M14.2179 8.94167C15.2189 9 15.7044 9.52292 15.7564 10.5969C15.7752 11.0167 16.3846 10.9875 16.3658 10.5677C16.2992 9.16562 15.5679 8.38437 14.2512 8.31146C13.8502 8.2875 13.8127 8.91771 14.2179 8.94167Z" fill="white"/>
</g>
<defs>
<clipPath id="clip0_1842_650">
<rect width="25" height="25" fill="white" transform="translate(0.5 0.5)"/>
</clipPath>
</defs>
</svg>
