<svg width="26" height="26" viewBox="0 0 26 26" fill="none" xmlns="http://www.w3.org/2000/svg">
<g clip-path="url(#clip0_1842_663)">
<path d="M18.7366 15.4033L18.7272 15.4814C16.4366 14.3397 16.197 14.1876 15.9012 14.6314C15.696 14.9387 15.0981 15.6356 14.9179 15.8418C14.7356 16.0449 14.5543 16.0606 14.2449 15.9199C13.9324 15.7637 12.9293 15.4356 11.7418 14.3731C10.8168 13.5449 10.196 12.5293 10.0126 12.2168C9.70744 11.6897 10.346 11.6147 10.9272 10.5147C11.0314 10.296 10.9783 10.1241 10.9012 9.96889C10.8231 9.81264 10.2012 8.28139 9.94077 7.67097C9.69077 7.06264 9.43348 7.13972 9.24077 7.13972C8.64077 7.08764 8.20223 7.09597 7.81577 7.49805C6.13452 9.34597 6.55848 11.2522 7.99702 13.2793C10.8241 16.9793 12.3304 17.6606 15.0845 18.6064C15.8283 18.8428 16.5064 18.8095 17.0429 18.7324C17.6408 18.6376 18.8835 17.9814 19.1429 17.247C19.4085 16.5126 19.4085 15.9033 19.3304 15.7626C19.2533 15.622 19.0491 15.5439 18.7366 15.4033Z" fill="white"/>
<path d="M21.875 4.09218C13.8656 -3.65053 0.610417 1.9651 0.605208 12.888C0.605208 15.0713 1.17708 17.2005 2.26667 19.0807L0.5 25.4995L7.09896 23.7786C15.3333 28.2266 25.4958 22.3203 25.5 12.8943C25.5 9.58593 24.2083 6.47239 21.8594 4.13281L21.875 4.09218ZM23.4188 12.8599C23.4125 20.8109 14.6844 25.7766 7.78125 21.7182L7.40625 21.4953L3.5 22.5109L4.54688 18.7141L4.29792 18.3234C0.00208318 11.4849 4.9375 2.54739 13.075 2.54739C15.8396 2.54739 18.4344 3.62552 20.3885 5.57864C22.3417 7.5151 23.4188 10.1099 23.4188 12.8599Z" fill="white"/>
</g>
<defs>
<clipPath id="clip0_1842_663">
<rect width="25" height="25" fill="white" transform="translate(0.5 0.5)"/>
</clipPath>
</defs>
</svg>
