<svg width="15" height="14" viewBox="0 0 15 14" fill="none" xmlns="http://www.w3.org/2000/svg">
<path d="M7.31109 0.543478C7.37335 0.364366 7.62665 0.364366 7.68891 0.543478L9.21766 4.94149C9.24513 5.02051 9.31886 5.07408 9.4025 5.07578L14.0577 5.17065C14.2473 5.17451 14.3255 5.41542 14.1744 5.52998L10.4641 8.34297C10.3974 8.39351 10.3692 8.48019 10.3935 8.56026L11.7418 13.0169C11.7967 13.1984 11.5918 13.3473 11.4361 13.239L7.61424 10.5795C7.54557 10.5317 7.45443 10.5317 7.38576 10.5795L3.56389 13.239C3.40824 13.3473 3.20331 13.1984 3.25822 13.0169L4.60653 8.56026C4.63075 8.48019 4.60259 8.39351 4.53593 8.34297L0.825577 5.52998C0.67447 5.41542 0.752746 5.17451 0.942331 5.17065L5.5975 5.07578C5.68114 5.07408 5.75487 5.02051 5.78234 4.94149L7.31109 0.543478Z" fill="#C4C4C4"/>
</svg>
